<svg width="307" height="66" viewBox="0 0 307 66" xmlns="http://www.w3.org/2000/svg"><title>flag</title><defs><linearGradient x1="50%" y1="100%" x2="50%" y2="-52.329%" id="a"><stop stop-color="#DB3700" offset="0%"/><stop stop-color="#FF4A1F" offset="100%"/></linearGradient><linearGradient x1="50%" y1="100%" x2="50%" y2="-52.329%" id="b"><stop stop-color="#DB3700" offset="0%"/><stop stop-color="#AA2101" offset="100%"/></linearGradient><linearGradient x1="50%" y1="100%" x2="50%" y2="-52.329%" id="c"><stop stop-color="#D03400" offset="0%"/><stop stop-color="#FF4417" offset="100%"/></linearGradient></defs><g fill="none" fill-rule="evenodd"><path d="M254.802 46.077c-.564 2.17-1.187 4.633-1.872 7.45 33.81 2.098 48.928 12.542 48.928 12.542l-13.88-19.496 18.81-3.745s-5.702-4.928-21.123-9.08M52.09 46.077c.563 2.17 1.186 4.633 1.87 7.45C20.15 55.624 5.034 66.068 5.034 66.068l13.88-19.496L.104 42.83s5.702-4.928 21.123-9.08" fill="url(#a)"/><path d="M24.62 47.23s20.478.38 28.813 6.4l-1.968-7.82s-20.62.504-26.846 1.42zm257.652 0s-20.48.38-28.814 6.4l1.968-7.82s20.62.504 26.846 1.42z" fill="url(#b)"/><path d="M215.373.7s-7.146-.214-61.928-.2C98.665.487 91.518.7 91.518.7c-61.03.905-77.485 4.47-77.485 4.47L24.62 47.23s46.683-2.96 128.825-2.92c82.142-.04 128.827 2.92 128.827 2.92l10.586-42.06S276.402 1.605 215.373.7z" fill="url(#c)"/></g></svg>
