<svg width="22" height="18" viewBox="0 0 22 18" xmlns="http://www.w3.org/2000/svg"><title></title><path d="M8.93 16.714c0 .036.003.125.012.268.01.143.01.26.007.355-.006.094-.02.2-.042.315-.022.116-.066.203-.133.26-.067.06-.16.088-.275.088H4.214c-1.062 0-1.97-.377-2.725-1.132-.756-.754-1.133-1.663-1.133-2.725v-9.43c0-1.06.377-1.97 1.132-2.724C2.242 1.233 3.15.856 4.213.856H8.5c.116 0 .217.043.3.127.086.085.13.186.13.302 0 .035.003.125.012.268.01.142.01.26.007.354-.006.094-.02.2-.042.315-.022.116-.066.203-.133.26-.067.06-.16.088-.275.088H4.214c-.59 0-1.093.21-1.513.63-.42.42-.63.925-.63 1.514v9.43c0 .588.21 1.093.63 1.512.42.42.925.63 1.514.63H8.394c.027 0 .078.004.154.013.076.008.127.02.154.04.028.017.063.042.108.073.045.03.076.07.094.12.018.05.027.11.027.18zM21.356 9.43c0 .23-.085.432-.254.6l-7.286 7.287c-.17.17-.37.254-.603.254-.232 0-.433-.083-.602-.253-.17-.17-.255-.37-.255-.603v-3.857h-6c-.232 0-.433-.085-.603-.254-.17-.17-.254-.37-.254-.603V6.857c0-.232.085-.433.254-.603.17-.17.37-.254.603-.254h6V2.143c0-.232.085-.433.255-.603.17-.17.37-.254.602-.254.232 0 .433.085.603.254l7.286 7.286c.17.17.254.37.254.603z" fill="#4A4A4A" fill-rule="evenodd"/></svg>
