<svg id="Layer_1" xmlns="http://www.w3.org/2000/svg" viewBox="0 0 458.8 459"><style>.st0{fill:#FFFFFF;}</style><path class="st0" d="M0 233v-6c.3-2.3.5-4.6.8-6.9 1.6-12.9 2.3-25.9 5-38.5 10.9-51.1 36.7-93.5 76.5-127.2C115.4 26.3 153.7 9.1 196.8 3c10-1.4 20.2-2 30.2-3h6c1.8.3 3.6.7 5.4.7 49.8 1.9 94.8 17.7 133.4 49.3 67.6 55.3 95.8 127.3 84.7 213.8-5.7 44.1-24 83.5-53.9 116.5-59 65-132.5 89.9-218.7 74-51.1-9.4-93.6-35.4-127.7-74.8C27 345.7 9.1 306.6 2.9 262.2 1.6 252.5 1 242.7 0 233zm123.3 68c1 1.4 1.2 1.9 1.5 2.1 1.6 1 3.1 1.9 4.8 2.7 23.2 12.1 47.8 17.4 73.8 15.1 24.1-2.1 46.7-9.2 66-24.4 30.7-24.4 48.5-56.3 52.5-95.2 1.2-12.1 4-22.2 14-29.7 2.5-1.9 4.3-4.6 6.3-7.1.8-.9 1.3-2.1 2.2-3.7-7.3.5-13.1 5.3-20.9 4.3 3.5-4.3 6.5-7.6 9.1-11.3 2.5-3.5 4.4-7.3 7.1-11.8-8.5 3.1-15.8 5.5-22.8 8.4-4.2 1.8-7.3 1-10.9-1.7-7.3-5.4-15-9.5-24.4-10.5-28-3.1-52.8 20.2-51 48.3.2 2.7 0 5.4 0 8.1-38.5-2.8-68.9-20.5-94-48.6-9.6 20.3-7 39.6 7 55.6 1.4 1.6 2.5 3.5 3.7 5.2-.3.4-.6.7-.9 1.1-5.3-1.5-10.6-3-16.5-4.7 1.8 23 14 37.2 34.2 45.6l-.6 1.2h-17.2c2.5 4.8 3.9 8.7 6.3 11.9 6.5 8.8 15.5 14.4 25.8 18.1 2.8 1 5.7 2.1 8.8 3.2-19.2 14.2-40.7 17.9-63.9 17.8z"/></svg>
